# xmcd
#
# Track frame offsets: 
#        150
#        14607
#        29582
#        41240
#        53970
#        67586
#        82501
#        104314
#        130157
#        152007
#        181720
#        191350
#        207254
#        220135
#        237143
#        260567
#        284133
#        307169
#        321169
#
# Disc length: 4474 seconds
#
# Revision: 0
# Processed by: cddbd v1.5.2PL0 Copyright (c) Steve Scherf et al.
# Submitted via: ExactAudioCopy v0.95b3
#
DISCID=0c117813
DTITLE=Charlie Parker  - Volume 5 Young Bird 1945-1946
DYEAR=1900
DGENRE=
TTITLE0=Dizzy Boogie
TTITLE1=Dizzy Boogie
TTITLE2=Flats Foot Floogee
TTITLE3=Flats Foot Floogee
TTITLE4=Popity Pop
TTITLE5=Slim's Jam
TTITLE6=Dizzy Atmosphere
TTITLE7=A Night In Tunisia
TTITLE8=Shaw 'Nuff
TTITLE9=Groovin' High
TTITLE10=Salt Peanuts
TTITLE11=Lover. Come Back To Me
TTITLE12=Anthropology
TTITLE13=Billie's Bounce
TTITLE14=Blue 'n' Boogie
TTITLE15=All The Thing You Are
TTITLE16=Ornithology
TTITLE17=Cherokee
TTITLE18=Ornithology
EXTD=
EXTT0=
EXTT1=
EXTT2=
EXTT3=
EXTT4=
EXTT5=
EXTT6=
EXTT7=
EXTT8=
EXTT9=
EXTT10=
EXTT11=
EXTT12=
EXTT13=
EXTT14=
EXTT15=
EXTT16=
EXTT17=
EXTT18=
PLAYORDER=
